<?xml version="1.0" encoding="UTF-8" standalone="no"?>
<svg width="500px" height="500px" viewBox="0 0 500 500" version="1.1"
    xmlns="http://www.w3.org/2000/svg"
    xmlns:xlink="http://www.w3.org/1999/xlink">
    <!-- Generator: Sketch 47.1 (45422) - http://www.bohemiancoding.com/sketch -->
    <defs>
        <linearGradient x1="100%" y1="21.872%" x2="0%" y2="83.451%" id="linearGradient-1">
            <stop stop-color="#3F3F40" offset="0%"></stop>
            <stop stop-color="#3C3C3D" offset="42.036%"></stop>
            <stop stop-color="#39383A" offset="100%"></stop>
        </linearGradient>
    </defs>
    <g id="root" stroke="none" stroke-width="1" fill="none" fill-rule="evenodd">
        <g id="Group" transform="translate(40.000000, 340.000000)">
            <rect id="Rectangle-15" x="0" y="0" width="420" height="60"></rect>
            <text id="headerText.accent" font-family="Inconsolata" font-size="56" font-style="normal" font-weight="700" line-spacing="56" letter-spacing="7" fill="#8bdeff" data-text-alignment="C">
                <tspan x="210" y="310"></tspan>
            </text>
        </g>
        <polygon id="shape.accent" fill="#8bdeff" points="153.573 171.176 153.127 203.468 249.467 147.481 249.909 115.194"></polygon>
        <polygon id="shape.accent" fill="#8bdeff" points="153.573 225.734 153.127 258.026 249.467 202.042 249.909 169.75"></polygon>
        <polygon id="shape.accent" fill="#8bdeff" points="250.535 281.722 250.104 314.008 346.431 258.026 346.873 225.734"></polygon>
        <polygon id="shape.accent" fill="#8bdeff" points="250.535 227.16 250.104 259.454 346.431 203.468 346.873 171.176"></polygon>
        <polygon id="shape.accent" fill-opacity=".7" fill="#8bdeff" points="153.127 203.468 250.104 259.454 250.535 227.16 153.573 171.176"></polygon>
        <polygon id="shape.accent" fill-opacity=".7" fill="#8bdeff" points="249.467 147.481 346.431 203.468 346.873 171.176 249.909 115.194"></polygon>
        <polygon id="shape.accent" fill-opacity=".7" fill="#8bdeff" points="249.467 202.042 346.431 258.026 346.873 225.734 249.909 169.75"></polygon>
        <polygon id="shape.accent" fill-opacity=".7" fill="#8bdeff" points="153.127 258.026 250.104 314.008 250.535 281.722 153.573 225.734"></polygon>
    </g>
</svg>